<svg width="24" height="24" viewBox="0 0 24 24" fill="none" xmlns="http://www.w3.org/2000/svg">
<rect width="24" height="24" fill="white"/>
<path d="M10 5.00091C10.0287 4.98586 10.0576 4.97113 10.0866 4.95672C10.6932 4.65519 11.3434 4.5 12 4.5V6.5C10.3431 6.5 9 8.29086 9 10.5L7 10.5C7 9.81792 7.09691 9.14162 7.28595 8.5C7.31529 8.40043 7.34685 8.30169 7.3806 8.2039C7.63188 7.47595 8.00017 6.81451 8.46447 6.25736C8.90657 5.72683 9.42747 5.30075 10 5.00091Z" fill="black"/>
<path fill-rule="evenodd" clip-rule="evenodd" d="M20 10.5C20 14.6259 17.5322 18.1033 14.1665 19.1661L15 22.5H9L9.83348 19.1661C6.46783 18.1033 4 14.6259 4 10.5C4 5.52944 7.58172 1.5 12 1.5C16.4183 1.5 20 5.52944 20 10.5ZM12 17.5C15.0988 17.5 18 14.594 18 10.5C18 6.40604 15.0988 3.5 12 3.5C8.90124 3.5 6 6.40604 6 10.5C6 14.594 8.90124 17.5 12 17.5Z" fill="black"/>
</svg>
