<svg width="16" height="16" viewBox="0 0 16 16" fill="none" xmlns="http://www.w3.org/2000/svg">
<rect width="16" height="16" fill="white"/>
<path d="M13.9498 3.05023C13.9498 2.49795 13.5021 2.05023 12.9498 2.05023H3.94977C3.39748 2.05023 2.94977 2.49795 2.94977 3.05023C2.94977 3.60252 3.39748 4.05023 3.94977 4.05023H11.9498V12.0502C11.9498 12.6025 12.3975 13.0502 12.9498 13.0502C13.5021 13.0502 13.9498 12.6025 13.9498 12.0502V3.05023ZM2.34317 12.2426L1.63606 12.9497L3.05027 14.3639L3.75738 13.6568L2.34317 12.2426ZM12.9498 3.05023L12.2427 2.34313L2.34317 12.2426L3.05027 12.9497L3.75738 13.6568L13.6569 3.75734L12.9498 3.05023Z" fill="black"/>
</svg>
