<svg width="24" height="24" viewBox="0 0 24 24" fill="none" xmlns="http://www.w3.org/2000/svg">
<rect width="24" height="24" fill="white"/>
<path fill-rule="evenodd" clip-rule="evenodd" d="M9.00093 14.5C10.1826 14.5 11.3525 14.7074 12.4443 15.1094C13.536 15.5113 14.5286 16.1001 15.3642 16.8428C16.1999 17.5856 16.8631 18.4679 17.3154 19.4385C17.4804 19.7927 17.6167 20.1565 17.7226 20.5264C18.0264 21.588 17.1052 22.4998 16.0009 22.5H2.00093C0.896441 22.5 -0.0247125 21.5881 0.279246 20.5264C0.385184 20.1565 0.520461 19.7926 0.685496 19.4385C1.13779 18.4679 1.80094 17.5856 2.63667 16.8428C3.47235 16.1 4.46475 15.5114 5.55659 15.1094C6.64852 14.7073 7.81903 14.5 9.00093 14.5ZM9.00093 16.5C8.05105 16.5 7.11415 16.6661 6.24702 16.9854C5.3802 17.3045 4.60699 17.768 3.96577 18.3379C3.32495 18.9075 2.83086 19.5711 2.49897 20.2832C2.46549 20.355 2.43336 20.4274 2.40327 20.5H15.5976C15.5675 20.4275 15.5363 20.355 15.5029 20.2832C15.171 19.571 14.6769 18.9076 14.0361 18.3379C13.3947 17.7678 12.6209 17.3046 11.7539 16.9854C10.8868 16.6661 9.95068 16.5 9.00093 16.5Z" fill="black"/>
<path d="M20.7812 8V11H23.7812V13H20.7812V16H18.7812V13H15.7812V11H18.7812V8H20.7812Z" fill="black"/>
<path fill-rule="evenodd" clip-rule="evenodd" d="M9.00093 1.5C12.3145 1.50017 15.0009 4.18639 15.0009 7.5C15.0009 10.8136 12.3145 13.4998 9.00093 13.5C5.68722 13.5 3.00093 10.8137 3.00093 7.5C3.00093 4.18629 5.68722 1.5 9.00093 1.5ZM9.00093 3.5C6.79179 3.5 5.00093 5.29086 5.00093 7.5C5.00093 9.70914 6.79179 11.5 9.00093 11.5C11.2099 11.4998 13.0009 9.70904 13.0009 7.5C13.0009 5.29096 11.2099 3.50017 9.00093 3.5Z" fill="black"/>
</svg>
