<svg width="24" height="24" viewBox="0 0 24 24" fill="none" xmlns="http://www.w3.org/2000/svg">
<rect width="24" height="24" fill="white"/>
<path d="M12.5145 11.5251L21 6.43381L22.9122 5.27655C22.5885 3.96918 21.4074 3 20 3H4C2.59258 3 1.41152 3.96918 1.08781 5.27655L3 6.43381L11.4855 11.5251C11.8022 11.7151 12.1978 11.7151 12.5145 11.5251Z" fill="black"/>
<path d="M10.4565 13.2401L3 8.76619L1 7.55978V18C1 19.6569 2.34315 21 4 21H20C21.6569 21 23 19.6569 23 18V7.55978L22.9122 7.60893L21 8.76619L13.5435 13.2401C12.5934 13.8101 11.4066 13.8101 10.4565 13.2401Z" fill="black"/>
</svg>
