<svg width="24" height="24" viewBox="0 0 24 24" fill="none" xmlns="http://www.w3.org/2000/svg">
<rect width="24" height="24" fill="white"/>
<path fill-rule="evenodd" clip-rule="evenodd" d="M1 5C1 3.34315 2.34315 2 4 2H20C21.6569 2 23 3.34315 23 5V19C23 20.6569 21.6569 22 20 22H4C2.34315 22 1 20.6569 1 19V5ZM21 8.61803V19C21 19.5523 20.5523 20 20 20H4C3.44772 20 3 19.5523 3 19V8.61803L11.1056 12.6708C11.6686 12.9523 12.3314 12.9523 12.8944 12.6708L21 8.61803ZM21 6.38197V5C21 4.44772 20.5523 4 20 4H4C3.44771 4 3 4.44772 3 5V6.38197L12 10.882L21 6.38197Z" fill="black"/>
</svg>
