<svg width="24" height="24" viewBox="0 0 24 24" fill="none" xmlns="http://www.w3.org/2000/svg">
<rect width="24" height="24" fill="white"/>
<path d="M7.82227 1.82227C7.48195 2.65046 7.2409 3.52923 7.11133 4.44434C7.80914 3.99191 8.57264 3.63218 9.38574 3.38574C9.63218 2.57264 9.99191 1.80914 10.4443 1.11133C9.52923 1.2409 8.65046 1.48195 7.82227 1.82227Z" fill="black"/>
<path fill-rule="evenodd" clip-rule="evenodd" d="M7.82227 1.82227C7.48195 2.65046 7.2409 3.52923 7.11133 4.44434C4.63755 6.04821 3 8.83224 3 12C3 16.9706 7.02944 21 12 21C15.1679 21 17.9508 19.3616 19.5547 16.8877C20.4699 16.7582 21.3485 16.5171 22.1768 16.1768C20.5319 20.1801 16.5963 23 12 23C5.92487 23 1 18.0751 1 12C1 7.40392 3.81917 3.4672 7.82227 1.82227ZM20.6133 14.6133C20.3669 15.4265 20.0072 16.1898 19.5547 16.8877C19.0466 16.9596 18.5279 17 18 17C11.9249 17 7 12.0751 7 6C7 5.47182 7.03936 4.95264 7.11133 4.44434C7.80914 3.99191 8.57264 3.63218 9.38574 3.38574C9.13499 4.21309 9 5.09077 9 6C9 10.9706 13.0294 15 18 15C18.909 15 19.7861 14.8639 20.6133 14.6133Z" fill="black"/>
<path d="M19.5547 16.8877C20.4699 16.7582 21.3485 16.5171 22.1768 16.1768C22.5171 15.3485 22.7582 14.4699 22.8877 13.5547C22.1898 14.0072 21.4265 14.3669 20.6133 14.6133C20.3669 15.4265 20.0072 16.1898 19.5547 16.8877Z" fill="black"/>
</svg>
