<svg width="24" height="24" viewBox="0 0 24 24" fill="none" xmlns="http://www.w3.org/2000/svg">
<rect width="24" height="24" fill="white"/>
<path fill-rule="evenodd" clip-rule="evenodd" d="M2.60474 2.18433L3.02305 4.21388L3.03099 4.25302C3.03803 4.2879 3.04847 4.34005 3.06183 4.40788C3.08856 4.54358 3.12695 4.7419 3.17312 4.9901C3.26551 5.48682 3.38874 6.1817 3.5119 6.97308C3.76047 8.57032 4.00001 10.5069 4.00001 12C4.00001 13.4931 3.76047 15.4297 3.5119 17.0269C3.38874 17.8183 3.26551 18.5132 3.17312 19.0099C3.12695 19.2581 3.08856 19.4564 3.06183 19.5921C3.04847 19.6599 3.03803 19.7121 3.03099 19.747L3.02305 19.7861L2.60474 21.8157L22.2361 12L2.60474 2.18433ZM5.48811 6.66553C5.44025 6.35794 5.39239 6.06463 5.34624 5.79114L17.7639 12L5.34624 18.2088C5.39239 17.9354 5.44025 17.6421 5.48811 17.3345C5.69092 16.0313 5.89961 14.4368 5.97273 13H11V11H5.97273C5.89961 9.56324 5.69092 7.96872 5.48811 6.66553Z" fill="black"/>
</svg>
