<svg width="24" height="24" viewBox="0 0 24 24" fill="none" xmlns="http://www.w3.org/2000/svg">
<rect width="24" height="24" fill="white"/>
<path fill-rule="evenodd" clip-rule="evenodd" d="M17 12C17 14.7614 14.7614 17 12 17C9.23858 17 7 14.7614 7 12C7 9.23858 9.23858 7 12 7C14.7614 7 17 9.23858 17 12ZM10 12C10 13.1046 10.8954 14 12 14C13.1046 14 14 13.1046 14 12C14 10.8954 13.1046 10 12 10C10.8954 10 10 10.8954 10 12Z" fill="black"/>
<path fill-rule="evenodd" clip-rule="evenodd" d="M12 4C9.29212 4 6.79216 5.33465 4.85934 6.78308C2.90878 8.2448 1.41234 9.91569 0.690796 10.7841C0.101358 11.4935 0.10136 12.5065 0.690797 13.2159C1.41234 14.0843 2.90879 15.7552 4.85934 17.2169C6.79217 18.6653 9.29212 20 12 20C14.7079 20 17.2078 18.6653 19.1406 17.2169C21.0912 15.7552 22.5877 14.0843 23.3092 13.2159C23.8986 12.5065 23.8986 11.4935 23.3092 10.7841C22.5877 9.91569 21.0912 8.2448 19.1406 6.78308C17.2078 5.33465 14.7079 4 12 4ZM6.05872 15.6165C4.32723 14.3189 2.96939 12.8221 2.28099 12C2.96939 11.1779 4.32723 9.6811 6.05871 8.38355C7.8526 7.03924 9.92663 6 12 6C14.0734 6 16.1474 7.03924 17.9413 8.38355C19.6728 9.6811 21.0306 11.1779 21.719 12C21.0306 12.8221 19.6728 14.3189 17.9413 15.6165C16.1474 16.9608 14.0734 18 12 18C9.92663 18 7.8526 16.9608 6.05872 15.6165Z" fill="black"/>
</svg>
