<svg width="24" height="24" viewBox="0 0 24 24" fill="none" xmlns="http://www.w3.org/2000/svg">
<g clip-path="url(#clip0_164_18)">
<rect width="24" height="24" fill="white"/>
<path d="M13 24H11V21H13V24Z" fill="black"/>
<path d="M6.34277 19.0713L4.22168 21.1924L2.80762 19.7783L4.92871 17.6572L6.34277 19.0713Z" fill="black"/>
<path d="M21.1924 19.7783L19.7783 21.1924L17.6572 19.0713L19.0713 17.6572L21.1924 19.7783Z" fill="black"/>
<path fill-rule="evenodd" clip-rule="evenodd" d="M12 4C16.4183 4 20 7.58172 20 12C20 16.4183 16.4183 20 12 20C7.58172 20 4 16.4183 4 12C4 7.58172 7.58172 4 12 4ZM12 6C8.68629 6 6 8.68629 6 12C6 15.3137 8.68629 18 12 18C15.3137 18 18 15.3137 18 12C18 8.68629 15.3137 6 12 6Z" fill="black"/>
<path d="M3 13H0V11H3V13Z" fill="black"/>
<path d="M24 13H21V11H24V13Z" fill="black"/>
<path d="M6.34277 4.92871L4.92871 6.34277L2.80762 4.22168L4.22168 2.80762L6.34277 4.92871Z" fill="black"/>
<path d="M21.1924 4.22168L19.0713 6.34277L17.6572 4.92871L19.7783 2.80762L21.1924 4.22168Z" fill="black"/>
<path d="M13 3H11V0H13V3Z" fill="black"/>
</g>
<defs>
<clipPath id="clip0_164_18">
<rect width="24" height="24" fill="white"/>
</clipPath>
</defs>
</svg>
