<svg width="24" height="24" viewBox="0 0 24 24" fill="none" xmlns="http://www.w3.org/2000/svg">
<rect width="24" height="24" fill="white"/>
<path fill-rule="evenodd" clip-rule="evenodd" d="M9.23042 14.5C10.4121 14.5 11.582 14.7074 12.6738 15.1094C13.7655 15.5113 14.7581 16.1001 15.5937 16.8428C16.4294 17.5856 17.0926 18.4679 17.5449 19.4385C17.7099 19.7927 17.8462 20.1565 17.9521 20.5264C18.2559 21.588 17.3347 22.4998 16.2304 22.5H2.23042C1.12593 22.5 0.20478 21.5881 0.508738 20.5264C0.614676 20.1565 0.749953 19.7926 0.914988 19.4385C1.36728 18.4679 2.03043 17.5856 2.86616 16.8428C3.70184 16.1 4.69424 15.5114 5.78608 15.1094C6.87801 14.7073 8.04852 14.5 9.23042 14.5ZM9.23042 16.5C8.28054 16.5 7.34364 16.6661 6.47651 16.9854C5.60969 17.3045 4.83648 17.768 4.19526 18.3379C3.55444 18.9075 3.06035 19.5711 2.72846 20.2832C2.69498 20.355 2.66285 20.4274 2.63276 20.5H15.8271C15.797 20.4275 15.7658 20.355 15.7324 20.2832C15.4005 19.571 14.9064 18.9076 14.2656 18.3379C13.6242 17.7678 12.8504 17.3046 11.9833 16.9854C11.1163 16.6661 10.1802 16.5 9.23042 16.5Z" fill="black"/>
<path d="M23.5458 9.87891L21.4248 12L23.5458 14.1211L22.1318 15.5352L20.0107 13.4141L17.8896 15.5352L16.4755 14.1211L18.5966 12L16.4755 9.87891L17.8896 8.46484L20.0107 10.5859L22.1318 8.46484L23.5458 9.87891Z" fill="black"/>
<path fill-rule="evenodd" clip-rule="evenodd" d="M9.23042 1.5C12.544 1.50017 15.2304 4.18639 15.2304 7.5C15.2304 10.8136 12.544 13.4998 9.23042 13.5C5.91671 13.5 3.23042 10.8137 3.23042 7.5C3.23042 4.18629 5.91671 1.5 9.23042 1.5ZM9.23042 3.5C7.02128 3.5 5.23042 5.29086 5.23042 7.5C5.23042 9.70914 7.02128 11.5 9.23042 11.5C11.4394 11.4998 13.2304 9.70904 13.2304 7.5C13.2304 5.29096 11.4394 3.50017 9.23042 3.5Z" fill="black"/>
</svg>
