<svg width="24" height="24" viewBox="0 0 24 24" fill="none" xmlns="http://www.w3.org/2000/svg">
<rect width="24" height="24" fill="white"/>
<path d="M19.2532 2.33624C19.6201 1.92345 20.2516 1.88631 20.6644 2.25323C21.0768 2.62019 21.1142 3.25169 20.7474 3.66436L4.74736 21.6644C4.38054 22.077 3.74901 22.114 3.33623 21.7474C2.92345 21.3805 2.88632 20.749 3.25322 20.3362L19.2532 2.33624Z" fill="black"/>
<path d="M8.50615 18.1868C8.80507 18.347 9.12491 18.4876 9.46513 18.6058C10.3692 18.9181 11.4086 19.0745 12.5823 19.0745C13.1219 19.0745 13.6504 19.0318 14.1663 18.9466C14.6823 18.8614 15.147 18.7614 15.5589 18.6478C15.9704 18.5342 16.2876 18.4351 16.5101 18.3499L17.1136 20.1536C16.8202 20.305 16.4227 20.4521 15.9212 20.594C15.4241 20.7361 14.874 20.8517 14.2727 20.9417C13.6764 21.0316 13.0727 21.0774 12.4622 21.0774C10.9709 21.0774 9.64461 20.8732 8.48466 20.4661C7.97352 20.2881 7.49861 20.0698 7.05791 19.8167L8.50615 18.1868Z" fill="black"/>
<path d="M12.4544 2.6751C13.8415 2.67513 15.0709 2.88559 16.1409 3.30694C16.5333 3.46081 16.9037 3.6372 17.2513 3.83526L15.8675 5.3919C15.4569 5.18842 15.0154 5.02617 14.5433 4.90557C13.8759 4.73517 13.1629 4.64977 12.4056 4.64971C11.2456 4.64971 10.2247 4.82689 9.34404 5.18194C8.46336 5.53232 7.72481 6.03229 7.12822 6.68096C6.53646 7.32956 6.08846 8.09857 5.78545 8.98858C5.48722 9.87387 5.3382 10.8544 5.33818 11.929C5.33821 13.0795 5.49446 14.1005 5.80693 14.9905C5.95183 15.3949 6.12913 15.7695 6.33525 16.1155L4.81572 17.8245C4.37705 17.2316 4.01914 16.5649 3.74736 15.8216C3.33546 14.6948 3.12712 13.4061 3.12236 11.9573C3.12713 10.5418 3.33761 9.26543 3.7542 8.1292C4.17082 6.9883 4.77936 6.01299 5.57939 5.20342C6.37956 4.38905 7.35772 3.76403 8.51298 3.32842C9.66813 2.8929 10.9821 2.67515 12.4544 2.6751Z" fill="black"/>
<path d="M19.5052 5.8128C19.9365 6.38097 20.2844 7.00815 20.5442 7.69659C20.9276 8.69548 21.1194 9.78023 21.1194 10.9495C21.1194 11.7589 21.0579 12.5261 20.9349 13.2503C20.8117 13.9699 20.6013 14.6096 20.303 15.1683C20.0095 15.7267 19.6093 16.1719 19.1028 16.5032C18.5963 16.8298 17.9615 17.007 17.1995 17.0355C16.7215 17.0591 16.3015 17.0142 15.9417 16.9007C15.5823 16.7871 15.291 16.6096 15.0686 16.3685C14.8509 16.1223 14.7134 15.8211 14.6565 15.4661H14.5716C14.4627 15.7501 14.2563 16.0107 13.9534 16.2474C13.6552 16.4793 13.2853 16.6617 12.845 16.7942C12.4049 16.922 11.9148 16.9741 11.3753 16.9505C10.8501 16.9247 10.3603 16.8116 9.90556 16.6136L11.4534 14.8714C11.613 14.8969 11.7838 14.9124 11.9651 14.9124C12.5661 14.9123 13.0468 14.7957 13.4065 14.5638C13.7662 14.3271 14.0247 13.9768 14.181 13.513C14.3371 13.0492 14.4122 12.4714 14.4075 11.7806C14.4075 11.703 14.4069 11.6263 14.4046 11.5521L16.4534 9.24737V13.8968C16.4582 14.2517 16.5436 14.5385 16.7093 14.7562C16.8797 14.9736 17.1165 15.0823 17.4192 15.0823C17.7979 15.0822 18.1033 14.9332 18.3352 14.6351C18.5719 14.3321 18.7428 13.8682 18.847 13.2435C18.9559 12.6138 19.0079 11.8084 19.0032 10.8284C19.008 10.0237 18.9016 9.29421 18.6839 8.64092C18.5358 8.18365 18.3426 7.7656 18.1077 7.38604L19.5052 5.8128Z" fill="black"/>
<path d="M11.2405 6.94366C11.7517 6.8727 12.2323 6.87996 12.6819 6.96514C13.1316 7.05037 13.5058 7.18064 13.804 7.35577C13.8776 7.39835 13.945 7.44208 14.0052 7.48663L12.6321 9.03057C12.4333 8.9983 12.2152 8.98176 11.9788 8.98174C11.4486 8.98177 10.9964 9.10263 10.6224 9.34405C10.2531 9.58548 9.96867 9.91902 9.76982 10.345C9.57573 10.7664 9.4788 11.2477 9.4788 11.7874C9.47883 12.0384 9.49577 12.2831 9.52959 12.5208L7.82744 14.4358C7.76392 14.2863 7.70597 14.1301 7.65361 13.9681C7.45477 13.3526 7.35578 12.6535 7.35576 11.8724C7.35577 11.1103 7.46427 10.438 7.68193 9.85577C7.89973 9.27339 8.19138 8.77551 8.55595 8.36358C8.9252 7.95181 9.34206 7.62971 9.80595 7.39776C10.2698 7.16115 10.7483 7.00992 11.2405 6.94366Z" fill="black"/>
</svg>
