<svg width="24" height="24" viewBox="0 0 24 24" fill="none" xmlns="http://www.w3.org/2000/svg">
<rect width="24" height="24" fill="white"/>
<path d="M17.75 4H19C20.6566 4 21.9997 5.34344 22 7V9H19C16.791 9 15.0002 10.791 15 13C15 15.2091 16.7909 17 19 17H22V20C21.9998 21.6567 20.6567 23 19 23H4C2.34328 23 1.00021 21.6567 1 20V7C1.00035 5.34344 2.34336 4 4 4H7.75L16.749 1L17.75 4Z" fill="black"/>
<path d="M22 15H19C17.8955 15 17 14.1045 17 13C17.0002 11.8956 17.8955 11 19 11H22V15Z" fill="black"/>
</svg>
