<svg width="24" height="24" viewBox="0 0 24 24" fill="none" xmlns="http://www.w3.org/2000/svg">
<rect width="24" height="24" fill="white"/>
<path d="M22 14.9997H19C17.8955 14.9997 17 14.1042 17 12.9997C17.0003 11.8954 17.8956 10.9997 19 10.9997H22V14.9997Z" fill="black"/>
<path fill-rule="evenodd" clip-rule="evenodd" d="M19 3.99969C20.6565 3.99969 21.9995 5.34327 22 6.99969V8.99969H19C16.7911 8.99969 15.0003 10.7908 15 12.9997C15 15.2088 16.7909 16.9997 19 16.9997H22V19.9997C21.9998 21.6564 20.6567 22.9997 19 22.9997H4C2.34328 22.9997 1.00021 21.6564 1 19.9997V6.99969C1.00051 5.34327 2.34346 3.99969 4 3.99969H4.58887L15.4854 0.366877L15.6826 0.31219C16.6714 0.0907363 17.687 0.650609 18.0146 1.6325L18.8037 3.99969H19ZM16.6963 3.99969L16.1172 2.26434L10.9111 3.99969H16.6963Z" fill="black"/>
</svg>
